<?xml version="1.0" encoding="utf-8"?>
<!-- Generator: Adobe Illustrator 27.7.0, SVG Export Plug-In . SVG Version: 6.00 Build 0)  -->
<svg xmlns="http://www.w3.org/2000/svg" xmlns:xlink="http://www.w3.org/1999/xlink" aria-hidden="true" width="80" height="80" preserveAspectRatio="xMidYMid meet"
	 viewBox="0 0 250 250" style="enable-background:new 0 0 250 250;" xml:space="preserve" class="iconify iconify--logos">
<style type="text/css">
	.st1{fill:#FFFFFF;};

</style>
	<path class="st1" d="M125,0C55.96,0,0,55.96,0,125s55.96,125,125,125s125-55.96,125-125S194.04,0,125,0z M142.8,82.07
		c3.39-4.74,7.97-7.66,13.7-8.67c6.6-1.16,12.66,0.32,17.85,4.51c4.15,3.36,6.99,7.72,8.17,13.05c1.45,6.55,0.78,12.79-2.62,18.66
		c-2.39,4.13-5.71,7.26-9.97,9.31c-2.95,1.42-6.1,2.27-9.12,2.14c-6.87,0.03-12.28-2.6-16.6-7.39c-3.62-4.01-5.63-8.79-6.19-14.25
		C137.35,92.97,139.08,87.27,142.8,82.07z M79.94,79.27c3.82-5.04,8.8-8.54,14.96-9.71c7.67-1.46,14.89-0.11,21.22,4.94
		c5.51,4.4,8.91,10.07,10.19,16.9c1.1,5.88,0.6,11.75-1.85,17.32c-1.54,3.51-3.64,6.68-6.46,9.26c-3.82,3.49-8.23,5.92-13.41,6.75
		c-1.42,0.23-2.86,0.29-4.3,0.43c-6.17,0.03-11.43-2.16-16.15-6.03c-4.55-3.72-7.61-8.46-9.07-14.03
		C72.64,95.82,74.01,87.07,79.94,79.27z M144.23,181.49c-0.08,0.07-0.16,0.15-0.24,0.22c-0.33,0.01-0.66,0.04-0.99,0.04
		c-28.41,0-56.82,0-85.23,0c-0.33,0-0.66-0.02-0.99-0.04c-0.08-0.08-0.16-0.15-0.24-0.23c-0.02-2.84-0.29-5.7,0.01-8.5
		c0.66-6.38,2.29-12.53,5.86-17.94c1.95-2.97,4.11-5.84,6.5-8.46c4.58-5.03,10.36-8.31,16.77-10.46c3.9-1.31,7.92-2.12,12.07-2.01
		c3.33,0.09,6.69-0.08,9.98,0.34c5.55,0.71,10.75,2.57,15.61,5.44c3.84,2.27,7.27,5.02,10.2,8.32c3.57,4.01,6.34,8.57,8.21,13.65
		C144.08,168.22,144.55,174.8,144.23,181.49z M201.48,173.84c-0.37,0.04-0.74,0.12-1.11,0.12c-15.48,0.01-30.96,0.01-46.44,0
		c-0.32,0-0.65-0.03-1.13-0.06c-1.08-15.54-7.84-28.12-19.91-37.92c4.87-4.4,10.44-7.27,16.69-9c5.1-1.41,10.29-1.37,15.42-1.03
		c7.43,0.5,14.21,3.13,20.25,7.6c4.7,3.48,8.48,7.77,11.26,12.86c2.01,3.68,3.62,7.59,4.15,11.85c0.13,1.04,0.54,2.05,0.83,3.08
		C201.48,165.51,201.48,169.67,201.48,173.84z"/>
</svg>
