<?xml version="1.0" encoding="utf-8"?>
<!-- Generator: Adobe Illustrator 27.7.0, SVG Export Plug-In . SVG Version: 6.00 Build 0)  -->
<svg xmlns="http://www.w3.org/2000/svg" xmlns:xlink="http://www.w3.org/1999/xlink" aria-hidden="true" width="80" height="80" preserveAspectRatio="xMidYMid meet"
	 viewBox="0 0 250 250" style="enable-background:new 0 0 250 250;" xml:space="preserve" class="iconify iconify--logos">
<style type="text/css">
	.st1{fill:#FFFFFF;}
</style>
<path class="st1" d="M125,0C55.96,0,0,55.96,0,125s55.96,125,125,125s125-55.96,125-125S194.04,0,125,0z M120.92,102.68
	c-0.54,7.23-3.26,13.32-9.93,16.97c-1.38,0.76-3.03,1.03-4.56,1.53c0.16,6.14,0.31,12.34,0.48,18.54c0.07,2.5,0.17,4.99,0.27,7.49
	c0.17,4.36,0.36,8.73,0.54,13.09c0.08,2,0.2,4.01,0.26,6.01c0.11,3.62,0.18,7.24,0.28,10.86c0.09,3.17,0.39,6.35,0.26,9.51
	c-0.11,2.72-1.53,4.9-3.82,6.5c-3.16,2.21-7.92,2.8-11.27,0.28c-2.08-1.57-3.47-3.69-3.47-6.38c-0.01-3.98,0.12-7.96,0.25-11.94
	c0.14-4.14,0.36-8.27,0.53-12.41c0.11-2.81,0.17-5.62,0.28-8.43c0.17-4.27,0.35-8.54,0.54-12.81c0.17-4.05,0.4-8.1,0.52-12.15
	c0.08-2.76,0.02-5.51,0.02-8.3c-6.43-1.02-10.6-4.87-12.64-11.14c-0.92-2.82-1.49-5.69-1.4-8.69c0.1-3.28-0.01-6.56,0.03-9.84
	c0.04-3.03,0.16-6.07,0.26-9.1c0.08-2.54,0.17-5.08,0.27-7.62c0.17-4.41,0.27-8.82,0.57-13.21c0.15-2.22,2.1-4.2,4.13-4.84
	c1.78-0.56,4.13,0.45,5.26,2.31c0.4,0.66,0.53,1.58,0.52,2.39c-0.05,9.5-0.17,19.01-0.24,28.51c-0.02,2.86,2.4,4.32,4.84,2.83
	c1.3-0.8,1.62-2.23,1.63-3.7c0.01-5.97-0.01-11.95,0.01-17.92c0.01-3.46,0.09-6.91,0.11-10.37c0.02-3.36,3.15-4.28,5.44-3.75
	c2.16,0.5,3.09,1.91,3.07,4.16c-0.02,2.83,0.02,5.66-0.01,8.49c-0.07,6.72-0.16,13.44-0.27,20.15c-0.03,1.85,0.97,3.14,2.41,3.99
	c1.84,1.09,4.67-0.45,5.12-2.7c0.2-0.99,0.28-2.01,0.29-3.02c0.04-8.58,0.07-17.16,0.05-25.74c-0.01-3.71,3.19-4.75,5.83-4.23
	c0.71,0.14,1.43,0.4,2.04,0.77c0.94,0.57,1.54,1.38,1.54,2.61c0.01,10.53,0.05,21.06,0.07,31.59
	C121.02,96.18,121.16,99.44,120.92,102.68z M184.51,97.91c-0.19,7.27-2.04,14.09-6.12,20.22c-2.52,3.78-5.8,6.52-10.13,7.97
	c-0.69,0.23-1.03,0.65-0.99,1.49c0.15,3.48,0.18,6.97,0.3,10.46c0.16,5.04,0.37,10.07,0.53,15.11c0.2,6.2,0.35,12.41,0.55,18.61
	c0.15,4.77,0.51,9.54,0.49,14.31c-0.02,4.23-2.68,7.94-7,8.66c-4.52,0.75-7.91-0.67-9.88-5.64c-0.54-1.35-0.79-2.9-0.8-4.36
	c-0.07-9.3-0.04-18.6-0.04-27.9c-0.01,0-0.02,0-0.03,0c0-9.57-0.01-19.14,0.01-28.7c0-1.01-0.21-1.56-1.21-2.17
	c-3.78-2.28-6.58-5.6-8.7-9.43c-2.6-4.68-4.46-9.69-4.86-15.04c-0.37-4.85-0.61-9.77-0.24-14.61c0.46-6.09,2.16-11.96,5.04-17.42
	c2.47-4.68,5.71-8.68,10.49-11.17c3.21-1.67,6.63-1.72,10.16-1.26c3.67,0.47,6.93,1.74,9.78,4.1c2.83,2.34,5.21,5.05,7,8.27
	c2.6,4.67,4.08,9.72,5.12,14.92C184.87,88.81,184.63,93.38,184.51,97.91z"/>
</svg>
